<svg data-name="Layer 1" xmlns="http://www.w3.org/2000/svg" xmlns:xlink="http://www.w3.org/1999/xlink" viewBox="0 0 57.38 57.38"><defs><style>.cls-1{fill-rule:evenodd;fill:url(#linear-gradient);}.cls-2{isolation:isolate;}.cls-3{fill:#fff;}</style><linearGradient id="linear-gradient" x1="-395.13" y1="454.13" x2="-394.13" y2="455.13" gradientTransform="matrix(57.38, 0, 0, -57.38, 22662.75, 26105.25)" gradientUnits="userSpaceOnUse"><stop offset="0" stop-color="#ff8a01"/><stop offset="1" stop-color="#fb00ff"/></linearGradient></defs><path class="cls-1" d="M25.22,0,0,25.22V57.38L57.38,0Z"/><g class="cls-2"><path class="cls-3" d="M16,31.87,9.21,25l2.21-2.21a11.81,11.81,0,0,1,1.74-1.54A2.55,2.55,0,0,1,14.82,21a3,3,0,0,1,1.72.93,3.11,3.11,0,0,1,.83,1.29,2.46,2.46,0,0,1,.09,1.25,2.75,2.75,0,0,1-.39,1A10,10,0,0,1,15.74,27l-.9.9,2.58,2.58Zm-4.3-7.06,1.94,1.94.76-.76a5.08,5.08,0,0,0,1-1.19,1.29,1.29,0,0,0,.09-.77,1.24,1.24,0,0,0-.37-.69A1.22,1.22,0,0,0,14.3,23a1.33,1.33,0,0,0-.85.25,8.5,8.5,0,0,0-1,.94Z"/><path class="cls-3" d="M23.65,24.26l-1.31,1.31-4.95-4.95,1.22-1.22.7.7a3.06,3.06,0,0,1-.09-1.22,1.44,1.44,0,0,1,.4-.72,2.43,2.43,0,0,1,1.11-.62l.74,1.55a1.66,1.66,0,0,0-.83.4,1,1,0,0,0-.31.62,1.44,1.44,0,0,0,.24.85,10.83,10.83,0,0,0,1.55,1.77Z"/><path class="cls-3" d="M23.26,19.55A3.88,3.88,0,0,1,22.32,18a3.15,3.15,0,0,1,0-1.85,3.79,3.79,0,0,1,1-1.63,3.46,3.46,0,0,1,2.57-1.11,3.54,3.54,0,0,1,2.56,1.12,3.61,3.61,0,0,1,1.14,2.59,3.51,3.51,0,0,1-1.09,2.56,4,4,0,0,1-1.61,1,3,3,0,0,1-1.84,0A4.25,4.25,0,0,1,23.26,19.55Zm1.42-1.27a2.33,2.33,0,0,0,1.47.78,1.62,1.62,0,0,0,1.73-1.72,2.39,2.39,0,0,0-.79-1.49,2.36,2.36,0,0,0-1.47-.77A1.62,1.62,0,0,0,23.9,16.8,2.33,2.33,0,0,0,24.68,18.28Z"/></g></svg>